<svg xmlns="http://www.w3.org/2000/svg" viewBox="0 0 240 160" role="img" aria-labelledby="title desc">
  <title id="title">CPU icon</title>
  <desc id="desc">Stylized processor tile for the configurator</desc>
  <defs>
    <linearGradient id="g" x1="0" y1="0" x2="1" y2="1">
      <stop offset="0%" stop-color="#57d6ff"/>
      <stop offset="100%" stop-color="#a87bff"/>
    </linearGradient>
  </defs>
  <rect width="240" height="160" rx="24" fill="#0d1727"/>
  <rect x="52" y="28" width="136" height="104" rx="18" fill="url(#g)" opacity="0.18"/>
  <rect x="74" y="50" width="92" height="60" rx="14" fill="none" stroke="#edf5ff" stroke-width="5"/>
  <rect x="92" y="68" width="56" height="24" rx="8" fill="#edf5ff"/>
  <g fill="#57d6ff">
    <rect x="28" y="64" width="18" height="6" rx="3"/>
    <rect x="28" y="82" width="18" height="6" rx="3"/>
    <rect x="28" y="100" width="18" height="6" rx="3"/>
    <rect x="194" y="64" width="18" height="6" rx="3"/>
    <rect x="194" y="82" width="18" height="6" rx="3"/>
    <rect x="194" y="100" width="18" height="6" rx="3"/>
    <rect x="64" y="16" width="6" height="18" rx="3"/>
    <rect x="90" y="16" width="6" height="18" rx="3"/>
    <rect x="116" y="16" width="6" height="18" rx="3"/>
    <rect x="142" y="16" width="6" height="18" rx="3"/>
    <rect x="168" y="16" width="6" height="18" rx="3"/>
    <rect x="64" y="126" width="6" height="18" rx="3"/>
    <rect x="90" y="126" width="6" height="18" rx="3"/>
    <rect x="116" y="126" width="6" height="18" rx="3"/>
    <rect x="142" y="126" width="6" height="18" rx="3"/>
    <rect x="168" y="126" width="6" height="18" rx="3"/>
  </g>
</svg>